<svg width="23" height="23" viewBox="0 0 23 23" fill="none" xmlns="http://www.w3.org/2000/svg">
<path d="M11.0018 2.9968H4.00064C3.47012 2.9968 2.96133 3.20754 2.5862 3.58268C2.21107 3.95781 2.00032 4.4666 2.00032 4.99712V18.9993C2.00032 19.5299 2.21107 20.0387 2.5862 20.4138C2.96133 20.7889 3.47012 20.9997 4.00064 20.9997H18.0029C18.5334 20.9997 19.0422 20.7889 19.4173 20.4138C19.7924 20.0387 20.0032 19.5299 20.0032 18.9993V11.9982M17.3778 2.62174C17.7757 2.22385 18.3153 2.00032 18.878 2.00032C19.4407 2.00032 19.9804 2.22385 20.3782 2.62174C20.7761 3.01963 20.9997 3.55928 20.9997 4.12198C20.9997 4.68468 20.7761 5.22433 20.3782 5.62222L11.3638 14.6377C11.1263 14.8749 10.8329 15.0486 10.5107 15.1427L7.63722 15.9829C7.55115 16.008 7.45993 16.0095 7.37308 15.9872C7.28624 15.965 7.20697 15.9198 7.14358 15.8564C7.08019 15.793 7.03501 15.7137 7.01276 15.6269C6.99051 15.5401 6.99202 15.4488 7.01712 15.3628L7.85725 12.4893C7.95179 12.1673 8.12583 11.8743 8.36333 11.6372L17.3778 2.62174Z" stroke="#8A909C" stroke-width="2" stroke-linecap="round" stroke-linejoin="round"/>
</svg>
