<svg width="24" height="24" viewBox="0 0 24 24" fill="none" xmlns="http://www.w3.org/2000/svg">
<path d="M7.50152 8.00162C7.77771 8.00162 8.00162 7.77771 8.00162 7.50152C8.00162 7.22532 7.77771 7.00142 7.50152 7.00142C7.22532 7.00142 7.00142 7.22532 7.00142 7.50152C7.00142 7.77771 7.22532 8.00162 7.50152 8.00162Z" fill="#7E86C1"/>
<path d="M12.5885 2.58652C12.2135 2.21135 11.7048 2.00052 11.1743 2.0004H4.00081C3.47027 2.0004 2.96146 2.21116 2.58631 2.58631C2.21116 2.96146 2.0004 3.47027 2.0004 4.00081V11.1743C2.00052 11.7048 2.21135 12.2135 2.58652 12.5885L11.2923 21.2943C11.7469 21.746 12.3617 21.9996 13.0026 21.9996C13.6435 21.9996 14.2584 21.746 14.713 21.2943L21.2943 14.713C21.746 14.2584 21.9996 13.6435 21.9996 13.0026C21.9996 12.3617 21.746 11.7469 21.2943 11.2923L12.5885 2.58652Z" stroke="#7E86C1" stroke-width="2" stroke-linecap="round" stroke-linejoin="round"/>
<path d="M7.50152 8.00162C7.77771 8.00162 8.00162 7.77771 8.00162 7.50152C8.00162 7.22532 7.77771 7.00142 7.50152 7.00142C7.22532 7.00142 7.00142 7.22532 7.00142 7.50152C7.00142 7.77771 7.22532 8.00162 7.50152 8.00162Z" stroke="#7E86C1" stroke-width="2" stroke-linecap="round" stroke-linejoin="round"/>
</svg>
