<svg width="25" height="24" viewBox="0 0 25 24" fill="none" xmlns="http://www.w3.org/2000/svg">
<path d="M12.2376 2H11.7976C11.2671 2 10.7584 2.21071 10.3834 2.58579C10.0083 2.96086 9.79758 3.46957 9.79758 4V4.18C9.79722 4.53073 9.70464 4.87519 9.52912 5.17884C9.3536 5.48248 9.10132 5.73464 8.79758 5.91L8.36758 6.16C8.06354 6.33554 7.71865 6.42795 7.36758 6.42795C7.01651 6.42795 6.67162 6.33554 6.36758 6.16L6.21758 6.08C5.75864 5.81526 5.21342 5.74344 4.70158 5.88031C4.18975 6.01717 3.75313 6.35154 3.48758 6.81L3.26758 7.19C3.00284 7.64893 2.93102 8.19416 3.06789 8.706C3.20475 9.21783 3.53912 9.65445 3.99758 9.92L4.14758 10.02C4.44986 10.1945 4.7012 10.4451 4.87663 10.7468C5.05206 11.0486 5.14547 11.391 5.14758 11.74V12.25C5.14898 12.6024 5.05723 12.949 4.88162 13.2545C4.70602 13.5601 4.45279 13.8138 4.14758 13.99L3.99758 14.08C3.53912 14.3456 3.20475 14.7822 3.06789 15.294C2.93102 15.8058 3.00284 16.3511 3.26758 16.81L3.48758 17.19C3.75313 17.6485 4.18975 17.9828 4.70158 18.1197C5.21342 18.2566 5.75864 18.1847 6.21758 17.92L6.36758 17.84C6.67162 17.6645 7.01651 17.5721 7.36758 17.5721C7.71865 17.5721 8.06354 17.6645 8.36758 17.84L8.79758 18.09C9.10132 18.2654 9.3536 18.5175 9.52912 18.8212C9.70464 19.1248 9.79722 19.4693 9.79758 19.82V20C9.79758 20.5304 10.0083 21.0391 10.3834 21.4142C10.7584 21.7893 11.2671 22 11.7976 22H12.2376C12.768 22 13.2767 21.7893 13.6518 21.4142C14.0269 21.0391 14.2376 20.5304 14.2376 20V19.82C14.2379 19.4693 14.3305 19.1248 14.506 18.8212C14.6816 18.5175 14.9338 18.2654 15.2376 18.09L15.6676 17.84C15.9716 17.6645 16.3165 17.5721 16.6676 17.5721C17.0187 17.5721 17.3635 17.6645 17.6676 17.84L17.8176 17.92C18.2765 18.1847 18.8217 18.2566 19.3336 18.1197C19.8454 17.9828 20.282 17.6485 20.5476 17.19L20.7676 16.8C21.0323 16.3411 21.1041 15.7958 20.9673 15.284C20.8304 14.7722 20.496 14.3356 20.0376 14.07L19.8876 13.99C19.5824 13.8138 19.3291 13.5601 19.1535 13.2545C18.9779 12.949 18.8862 12.6024 18.8876 12.25V11.75C18.8862 11.3976 18.9779 11.051 19.1535 10.7455C19.3291 10.4399 19.5824 10.1862 19.8876 10.01L20.0376 9.92C20.496 9.65445 20.8304 9.21783 20.9673 8.706C21.1041 8.19416 21.0323 7.64893 20.7676 7.19L20.5476 6.81C20.282 6.35154 19.8454 6.01717 19.3336 5.88031C18.8217 5.74344 18.2765 5.81526 17.8176 6.08L17.6676 6.16C17.3635 6.33554 17.0187 6.42795 16.6676 6.42795C16.3165 6.42795 15.9716 6.33554 15.6676 6.16L15.2376 5.91C14.9338 5.73464 14.6816 5.48248 14.506 5.17884C14.3305 4.87519 14.2379 4.53073 14.2376 4.18V4C14.2376 3.46957 14.0269 2.96086 13.6518 2.58579C13.2767 2.21071 12.768 2 12.2376 2Z" stroke="#7E86C1" stroke-width="2" stroke-linecap="round" stroke-linejoin="round"/>
<path d="M12.0176 15C13.6744 15 15.0176 13.6569 15.0176 12C15.0176 10.3431 13.6744 9 12.0176 9C10.3607 9 9.01758 10.3431 9.01758 12C9.01758 13.6569 10.3607 15 12.0176 15Z" stroke="#7E86C1" stroke-width="2" stroke-linecap="round" stroke-linejoin="round"/>
</svg>
