<svg width="26" height="26" viewBox="0 0 26 26" fill="none" xmlns="http://www.w3.org/2000/svg">
<path d="M4.33341 21.6667C3.73758 21.6667 3.22751 21.4545 2.80321 21.0302C2.3789 20.6059 2.16675 20.0958 2.16675 19.5V6.5C2.16675 5.90417 2.3789 5.3941 2.80321 4.96979C3.22751 4.54549 3.73758 4.33333 4.33341 4.33333H21.6667C22.2626 4.33333 22.7727 4.54549 23.197 4.96979C23.6213 5.3941 23.8334 5.90417 23.8334 6.5V19.5C23.8334 20.0958 23.6213 20.6059 23.197 21.0302C22.7727 21.4545 22.2626 21.6667 21.6667 21.6667H4.33341ZM13.0001 14.0833L4.33341 8.66667V19.5H21.6667V8.66667L13.0001 14.0833ZM13.0001 11.9167L21.6667 6.5H4.33341L13.0001 11.9167ZM4.33341 8.66667V6.5V19.5V8.66667Z" fill="#7E86C1"/>
</svg>
