<svg width="28" height="28" viewBox="0 0 28 28" fill="none" xmlns="http://www.w3.org/2000/svg">
<g clip-path="url(#clip0_2_1432)">
<path d="M19.265 8.00439C18.875 7.61439 18.245 7.61439 17.855 8.00439L12.215 13.6444L13.625 15.0544L19.265 9.40439C19.645 9.02439 19.645 8.38439 19.265 8.00439ZM23.505 7.99439L13.625 17.8744L10.145 14.4044C9.75498 14.0144 9.12498 14.0144 8.73498 14.4044C8.34498 14.7944 8.34498 15.4244 8.73498 15.8144L12.915 19.9944C13.305 20.3844 13.935 20.3844 14.325 19.9944L24.915 9.41439C25.305 9.02439 25.305 8.39439 24.915 8.00439H24.905C24.525 7.60439 23.895 7.60439 23.505 7.99439ZM3.08498 15.8244L7.26498 20.0044C7.65498 20.3944 8.28498 20.3944 8.67498 20.0044L9.37498 19.3044L4.49498 14.4044C4.10498 14.0144 3.47498 14.0144 3.08498 14.4044C2.69498 14.7944 2.69498 15.4344 3.08498 15.8244Z" fill="#D6DEFF"/>
</g>
<defs>
<clipPath id="clip0_2_1432">
<rect width="28" height="28" rx="4" fill="white"/>
</clipPath>
</defs>
</svg>
