<svg width="24" height="24" viewBox="0 0 24 24" fill="none" xmlns="http://www.w3.org/2000/svg">
<path d="M10.2673 21.0001C10.4429 21.3041 10.6953 21.5565 10.9994 21.7321C11.3034 21.9076 11.6483 22 11.9993 22C12.3504 22 12.6952 21.9076 12.9993 21.7321C13.3033 21.5565 13.5558 21.3041 13.7313 21.0001M3.26128 15.3261C3.13065 15.4692 3.04443 15.6473 3.01314 15.8386C2.98184 16.0299 3.0068 16.2261 3.08499 16.4035C3.16317 16.5808 3.29122 16.7316 3.45354 16.8375C3.61586 16.9435 3.80546 16.9999 3.99928 17.0001H19.9993C20.1931 17.0001 20.3828 16.9439 20.5452 16.8382C20.7076 16.7324 20.8358 16.5818 20.9142 16.4046C20.9926 16.2273 21.0178 16.0311 20.9868 15.8398C20.9557 15.6486 20.8698 15.4704 20.7393 15.3271C19.4093 13.9561 17.9993 12.499 17.9993 8.00003C17.9993 6.40873 17.3672 4.8826 16.242 3.75737C15.1167 2.63215 13.5906 2.00001 11.9993 2.00001C10.408 2.00001 8.88188 2.63215 7.75666 3.75737C6.63144 4.8826 5.99929 6.40873 5.99929 8.00003C5.99929 12.499 4.58829 13.9561 3.26128 15.3261Z" stroke="#7E86C1" stroke-width="2" stroke-linecap="round" stroke-linejoin="round"/>
</svg>
